<?xml version="1.0" encoding="UTF-8"?>
<svg width="242px" height="85px" viewBox="0 0 242 85" version="1.1" xmlns="http://www.w3.org/2000/svg" xmlns:xlink="http://www.w3.org/1999/xlink">
    <!-- Generator: Sketch 59.1 (86144) - https://sketch.com -->
    <title>Group 8</title>
    <desc>Created with Sketch.</desc>
    <g id="Módulo-Financiero" stroke="none" stroke-width="1" fill="none" fill-rule="evenodd">
        <g id="Login" transform="translate(-60.000000, -261.000000)" fill="#00A9E0">
            <g id="Group-8" transform="translate(60.000000, 261.000000)">
                <g id="Group-4">
                    <g id="Group-3">
                        <path d="M152.172791,9.84565287 C147.072941,9.93024928 137.659406,12.5614893 133.35966,30.9364125 C131.486246,38.9429278 130.762342,47.2878286 132.366267,57.2215861 C133.84474,66.3832799 136.464361,74.2906131 138.229979,78.6487867 C138.838653,80.1501299 139.780936,81.716622 140.509486,82.6802431 C142.604996,85.4515048 146.092558,85.274533 147.558021,84.5189995 C149.155441,83.6963724 150.991685,81.7098154 150.327255,77.1727252 C150.005726,74.9809976 149.079241,71.7741131 148.557919,69.9917543 C146.957711,64.5221589 144.827817,57.9226667 144.641963,53.2212457 C144.393847,46.9329127 146.763493,46.1093131 148.336752,45.7475906 C150.983321,45.137913 153.201496,48.1785218 155.309087,51.9892497 C157.824629,56.5370359 162.135526,64.5950869 165.651895,70.7502048 C168.826291,76.3063413 174.684428,82.2553163 184.092387,81.8469199 C193.683413,81.4317168 200.753322,77.6025139 204.395142,65.5470396 C207.1207,56.5282846 208.978316,49.7887707 211.967787,42.8868707 C215.405168,34.9503663 219.990201,30.7020708 223.85133,31.9992157 C227.436465,33.2030129 228.331355,36.8698296 228.374101,42.2596904 C228.412202,47.0272328 227.885304,52.2829062 227.475494,56.1441974 C227.326811,57.5453862 227.057322,60.3642941 227.166976,61.9288415 C227.383496,65.0054281 228.6566,68.0781252 231.9676,68.5701457 C235.494191,69.0932821 238.323827,66.1440763 239.453823,62.5793587 C239.899874,61.1742804 240.279946,59.0243648 240.485316,57.4987123 C241.521455,49.7946049 241.790015,44.6167213 241.32352,36.7336974 C240.776178,27.5165784 239.052377,19.1113905 236.045249,11.8370718 C233.16822,4.88071885 228.546946,0.42239091 222.620043,0.0285800447 C216.059376,-0.407042838 208.530407,4.14754998 204.580997,12.9844713 C200.940105,21.1300358 198.027764,29.4924394 196.261216,33.7601823 C194.469578,38.0882123 191.836018,40.7554301 187.787176,41.2017491 C182.836939,41.7462777 178.571576,37.9861132 175.447361,32.6244512 C172.723662,27.9512289 167.325515,19.0530481 164.437335,16.0630027 C161.723858,13.2538185 158.624733,9.7386919 152.172791,9.84565287" id="Fill-1"></path>
                        <path d="M41.0214844,59.7475586 C41.0214844,65.3970009 38.9790243,69.8295738 34.894043,73.0454102 C30.8090616,76.2612465 25.1741896,77.8691406 17.9892578,77.8691406 C10.8043261,77.8691406 4.92319997,76.7537546 0.345703125,74.5229492 L0.345703125,64.7016602 C3.24285303,66.0633206 6.32102863,67.13525 9.58032227,67.9174805 C12.8396159,68.6997109 15.8743349,69.0908203 18.6845703,69.0908203 C22.7985232,69.0908203 25.8332422,68.3086016 27.7888184,66.7441406 C29.7443945,65.1796797 30.722168,63.0792775 30.722168,60.4428711 C30.722168,58.0672082 29.824065,56.0537192 28.027832,54.4023438 C26.3404617,52.8510517 22.9657701,51.0313402 17.903665,48.9431607 L16.902832,48.5356445 C11.1085322,46.1889531 7.02361214,43.5091296 4.64794922,40.4960938 C2.2722863,37.4830579 1.08447266,33.8616748 1.08447266,29.6318359 C1.08447266,24.3300516 2.96759185,20.1582183 6.73388672,17.1162109 C10.5001816,14.0742035 15.5556323,12.5532227 21.9003906,12.5532227 C27.9844054,12.5532227 34.0393579,13.8858916 40.0654297,16.5512695 L36.7626953,25.0253906 C31.113253,22.6497277 26.0722878,21.4619141 21.6396484,21.4619141 C18.2789546,21.4619141 15.7295009,22.1934334 13.9912109,23.6564941 C12.252921,25.1195548 11.3837891,27.0533734 11.3837891,29.4580078 C11.3837891,31.1093833 11.7314418,32.5217226 12.4267578,33.6950684 C13.1220738,34.8684141 14.2664308,35.9765573 15.8598633,37.0195312 L16.2349422,37.2567872 C17.8851994,38.2682039 20.6283144,39.565247 24.4643555,41.1479492 C29.1287668,43.0890397 32.5473524,44.8997312 34.7202148,46.5800781 C36.8930773,48.2604251 38.4864858,50.1580298 39.5004883,52.2729492 C40.5144907,54.3878686 41.0214844,56.8793802 41.0214844,59.7475586 Z M96.8438462,12.4663086 C106.288555,12.4663086 113.589263,15.3199584 118.74619,21.0273438 C123.903117,26.7347291 126.481541,34.7741994 126.481541,45.1459961 C126.481541,55.4888212 123.895874,63.5282916 118.724461,69.2646484 C113.553049,75.0010052 106.230612,77.8691406 96.7569321,77.8691406 C87.1673659,77.8691406 79.8014728,75.0227335 74.6590317,69.329834 C69.5165906,63.6369344 66.9454087,55.5467647 66.9454087,45.059082 C66.9454087,34.5713994 69.5310762,26.5174435 74.7024887,20.8969727 C79.8739013,15.2765018 87.25428,12.4663086 96.8438462,12.4663086 Z M58.5029778,13.4658203 L58.5029778,77 L48.1167473,77 L48.1167473,13.4658203 L58.5029778,13.4658203 Z M96.8438462,21.375 C90.6149739,21.375 85.9144187,23.388489 82.7420395,27.4155273 C79.5696604,31.4425657 77.9834946,37.3526629 77.9834946,45.1459961 C77.9834946,52.9683008 79.5624176,58.9001263 82.720311,62.9416504 C85.8782044,66.9831745 90.5570313,69.0039062 96.7569321,69.0039062 C102.927861,69.0039062 107.58496,67.0049028 110.728368,63.0068359 C113.871775,59.0087691 115.443456,53.0552153 115.443456,45.1459961 C115.443456,37.3526629 113.886261,31.4425657 110.771825,27.4155273 C107.657389,23.388489 103.014775,21.375 96.8438462,21.375 Z" id="SIO" fill-rule="nonzero"></path>
                    </g>
                </g>
            </g>
        </g>
    </g>
</svg>